<mxfile host="app.diagrams.net" agent="Mozilla/5.0 (Windows NT 10.0; Win64; x64) AppleWebKit/537.36 (KHTML, like Gecko) Chrome/129.0.0.0 Safari/537.36" version="24.7.8">
  <diagram name="第 1 页" id="TmOYNM5JwFSmW5_F03kW">
    <mxGraphModel dx="2093" dy="975" grid="1" gridSize="10" guides="1" tooltips="1" connect="1" arrows="1" fold="1" page="1" pageScale="1" pageWidth="1920" pageHeight="1200" math="0" shadow="0">
      <root>
        <mxCell id="0" />
        <mxCell id="1" parent="0" />
        <mxCell id="ph6f9xYr6J6rT4W5IW1i-1" value="&lt;font style=&quot;font-size: 24px;&quot;&gt;&lt;b&gt;TracePro License Design&lt;/b&gt;&lt;/font&gt;" style="text;html=1;align=center;verticalAlign=middle;resizable=0;points=[];autosize=1;strokeColor=none;fillColor=none;" vertex="1" parent="1">
          <mxGeometry x="730" y="10" width="310" height="40" as="geometry" />
        </mxCell>
        <mxCell id="ph6f9xYr6J6rT4W5IW1i-15" value="" style="ellipse;shape=cloud;whiteSpace=wrap;html=1;" vertex="1" parent="1">
          <mxGeometry x="1080" y="384" width="725" height="520" as="geometry" />
        </mxCell>
        <mxCell id="ph6f9xYr6J6rT4W5IW1i-13" style="edgeStyle=orthogonalEdgeStyle;rounded=0;orthogonalLoop=1;jettySize=auto;html=1;exitX=0;exitY=0.5;exitDx=0;exitDy=0;entryX=1;entryY=0.5;entryDx=0;entryDy=0;" edge="1" parent="1" source="ph6f9xYr6J6rT4W5IW1i-5" target="ph6f9xYr6J6rT4W5IW1i-6">
          <mxGeometry relative="1" as="geometry" />
        </mxCell>
        <mxCell id="ph6f9xYr6J6rT4W5IW1i-5" value="&lt;font style=&quot;font-size: 18px;&quot;&gt;license-issuer&lt;/font&gt;" style="rounded=0;whiteSpace=wrap;html=1;" vertex="1" parent="1">
          <mxGeometry x="1240" y="605" width="290" height="80" as="geometry" />
        </mxCell>
        <mxCell id="ph6f9xYr6J6rT4W5IW1i-18" style="edgeStyle=orthogonalEdgeStyle;rounded=0;orthogonalLoop=1;jettySize=auto;html=1;exitX=0;exitY=0.5;exitDx=0;exitDy=0;entryX=1;entryY=0.5;entryDx=0;entryDy=0;" edge="1" parent="1" source="ph6f9xYr6J6rT4W5IW1i-6" target="ph6f9xYr6J6rT4W5IW1i-16">
          <mxGeometry relative="1" as="geometry" />
        </mxCell>
        <mxCell id="ph6f9xYr6J6rT4W5IW1i-6" value="&lt;font style=&quot;font-size: 18px;&quot;&gt;TraceLicensexxx.pfx License&lt;/font&gt;" style="rounded=0;whiteSpace=wrap;html=1;" vertex="1" parent="1">
          <mxGeometry x="770" y="605" width="290" height="80" as="geometry" />
        </mxCell>
        <mxCell id="ph6f9xYr6J6rT4W5IW1i-11" style="edgeStyle=orthogonalEdgeStyle;rounded=0;orthogonalLoop=1;jettySize=auto;html=1;entryX=0.5;entryY=0;entryDx=0;entryDy=0;" edge="1" parent="1" source="ph6f9xYr6J6rT4W5IW1i-10" target="ph6f9xYr6J6rT4W5IW1i-5">
          <mxGeometry relative="1" as="geometry">
            <mxPoint x="1385" y="510" as="targetPoint" />
          </mxGeometry>
        </mxCell>
        <mxCell id="ph6f9xYr6J6rT4W5IW1i-10" value="&lt;font style=&quot;font-size: 14px;&quot;&gt;http://172.16.186.116:6677/General/&lt;/font&gt;&lt;div&gt;&lt;font size=&quot;3&quot;&gt;用户使用设备的General信息&lt;/font&gt;&lt;div&gt;&lt;font size=&quot;3&quot;&gt;请求生成证书&lt;/font&gt;&lt;/div&gt;&lt;/div&gt;" style="rounded=1;whiteSpace=wrap;html=1;" vertex="1" parent="1">
          <mxGeometry x="1230" y="310" width="310" height="80" as="geometry" />
        </mxCell>
        <mxCell id="ph6f9xYr6J6rT4W5IW1i-12" value="&lt;font style=&quot;font-size: 14px;&quot;&gt;通过http api 发给license issuer&lt;/font&gt;" style="text;html=1;align=center;verticalAlign=middle;resizable=0;points=[];autosize=1;strokeColor=none;fillColor=none;" vertex="1" parent="1">
          <mxGeometry x="1315" y="438" width="210" height="30" as="geometry" />
        </mxCell>
        <mxCell id="ph6f9xYr6J6rT4W5IW1i-14" value="&lt;font style=&quot;font-size: 14px;&quot;&gt;&lt;b&gt;生成证书&lt;/b&gt;&lt;/font&gt;" style="text;html=1;align=center;verticalAlign=middle;resizable=0;points=[];autosize=1;strokeColor=none;fillColor=none;" vertex="1" parent="1">
          <mxGeometry x="1080" y="608" width="80" height="30" as="geometry" />
        </mxCell>
        <mxCell id="ph6f9xYr6J6rT4W5IW1i-16" value="机器配套的TopImage" style="swimlane;" vertex="1" parent="1">
          <mxGeometry x="90" y="328" width="450" height="632" as="geometry" />
        </mxCell>
        <mxCell id="ph6f9xYr6J6rT4W5IW1i-3" value="&lt;font style=&quot;font-size: 18px;&quot;&gt;KeyValidator&lt;/font&gt;" style="rounded=0;whiteSpace=wrap;html=1;" vertex="1" parent="ph6f9xYr6J6rT4W5IW1i-16">
          <mxGeometry x="50" y="402" width="290" height="70" as="geometry" />
        </mxCell>
        <mxCell id="ph6f9xYr6J6rT4W5IW1i-2" value="&lt;font style=&quot;font-size: 18px;&quot;&gt;Trace Pro&lt;/font&gt;" style="rounded=0;whiteSpace=wrap;html=1;" vertex="1" parent="ph6f9xYr6J6rT4W5IW1i-16">
          <mxGeometry x="60" y="192" width="290" height="80" as="geometry" />
        </mxCell>
        <mxCell id="ph6f9xYr6J6rT4W5IW1i-21" value="&lt;font style=&quot;font-size: 18px;&quot;&gt;Local Machine Personal License&lt;/font&gt;" style="rounded=0;whiteSpace=wrap;html=1;" vertex="1" parent="ph6f9xYr6J6rT4W5IW1i-16">
          <mxGeometry x="60" y="552" width="290" height="60" as="geometry" />
        </mxCell>
        <mxCell id="ph6f9xYr6J6rT4W5IW1i-27" style="edgeStyle=orthogonalEdgeStyle;rounded=0;orthogonalLoop=1;jettySize=auto;html=1;exitX=0.5;exitY=1;exitDx=0;exitDy=0;entryX=0.468;entryY=0;entryDx=0;entryDy=0;entryPerimeter=0;" edge="1" parent="ph6f9xYr6J6rT4W5IW1i-16" source="ph6f9xYr6J6rT4W5IW1i-3" target="ph6f9xYr6J6rT4W5IW1i-21">
          <mxGeometry relative="1" as="geometry" />
        </mxCell>
        <mxCell id="ph6f9xYr6J6rT4W5IW1i-29" style="edgeStyle=orthogonalEdgeStyle;rounded=0;orthogonalLoop=1;jettySize=auto;html=1;exitX=0.5;exitY=1;exitDx=0;exitDy=0;entryX=0.531;entryY=-0.054;entryDx=0;entryDy=0;entryPerimeter=0;" edge="1" parent="ph6f9xYr6J6rT4W5IW1i-16" source="ph6f9xYr6J6rT4W5IW1i-2" target="ph6f9xYr6J6rT4W5IW1i-3">
          <mxGeometry relative="1" as="geometry" />
        </mxCell>
        <mxCell id="ph6f9xYr6J6rT4W5IW1i-9" value="&lt;font style=&quot;font-size: 14px;&quot;&gt;通过DllImport进行设备信息的验证&lt;/font&gt;" style="text;html=1;align=center;verticalAlign=middle;resizable=0;points=[];autosize=1;strokeColor=none;fillColor=none;" vertex="1" parent="ph6f9xYr6J6rT4W5IW1i-16">
          <mxGeometry x="205" y="332" width="230" height="30" as="geometry" />
        </mxCell>
        <mxCell id="ph6f9xYr6J6rT4W5IW1i-30" value="&lt;font style=&quot;font-size: 14px;&quot;&gt;Middleware验证证书有效性&lt;/font&gt;" style="text;html=1;align=center;verticalAlign=middle;resizable=0;points=[];autosize=1;strokeColor=none;fillColor=none;" vertex="1" parent="ph6f9xYr6J6rT4W5IW1i-16">
          <mxGeometry x="225" y="142" width="190" height="30" as="geometry" />
        </mxCell>
        <mxCell id="ph6f9xYr6J6rT4W5IW1i-31" value="&lt;font style=&quot;font-size: 14px;&quot;&gt;X509Certificates访问证书库&lt;/font&gt;" style="text;html=1;align=center;verticalAlign=middle;resizable=0;points=[];autosize=1;strokeColor=none;fillColor=none;" vertex="1" parent="ph6f9xYr6J6rT4W5IW1i-16">
          <mxGeometry x="205" y="502" width="200" height="30" as="geometry" />
        </mxCell>
        <mxCell id="ph6f9xYr6J6rT4W5IW1i-17" value="&lt;font style=&quot;font-size: 18px;&quot;&gt;Azure App Service&lt;/font&gt;" style="text;html=1;align=center;verticalAlign=middle;resizable=0;points=[];autosize=1;strokeColor=none;fillColor=none;" vertex="1" parent="1">
          <mxGeometry x="1370" y="785" width="170" height="40" as="geometry" />
        </mxCell>
        <mxCell id="ph6f9xYr6J6rT4W5IW1i-19" value="&lt;font style=&quot;font-size: 14px;&quot;&gt;将证书安装到设备上&lt;/font&gt;" style="text;html=1;align=center;verticalAlign=middle;resizable=0;points=[];autosize=1;strokeColor=none;fillColor=none;" vertex="1" parent="1">
          <mxGeometry x="595" y="588" width="150" height="30" as="geometry" />
        </mxCell>
        <mxCell id="ph6f9xYr6J6rT4W5IW1i-23" value="&lt;font style=&quot;font-size: 18px;&quot;&gt;用户访问Trace Pro API&lt;/font&gt;" style="rounded=1;whiteSpace=wrap;html=1;" vertex="1" parent="1">
          <mxGeometry x="150" y="230" width="290" height="58" as="geometry" />
        </mxCell>
        <mxCell id="ph6f9xYr6J6rT4W5IW1i-26" value="" style="edgeStyle=orthogonalEdgeStyle;rounded=0;orthogonalLoop=1;jettySize=auto;html=1;" edge="1" parent="1" source="ph6f9xYr6J6rT4W5IW1i-23" target="ph6f9xYr6J6rT4W5IW1i-2">
          <mxGeometry relative="1" as="geometry" />
        </mxCell>
      </root>
    </mxGraphModel>
  </diagram>
</mxfile>
